<?xml version="1.0" encoding="iso-8859-1"?>
<!-- Uploaded to: SVG Repo, www.svgrepo.com, Generator: SVG Repo Mixer Tools -->
<svg fill="#000000" height="800px" width="800px" version="1.1" id="Layer_1" xmlns="http://www.w3.org/2000/svg" xmlns:xlink="http://www.w3.org/1999/xlink" 
	 viewBox="0 0 512 512" xml:space="preserve">
<g transform="translate(1 1)">
	<g>
		<path d="M442.733,220.867h-62.781l-23.406-54.613c-0.853-3.413-4.267-5.12-7.68-5.12h-51.2v-25.6c0-14.507,11.093-25.6,25.6-25.6
			c5.12,0,8.533-3.413,8.533-8.533s-3.413-8.533-8.533-8.533c-23.893,0-42.667,18.773-42.667,42.667v25.6h-51.2
			c-3.413,0-6.827,1.707-7.68,5.973l-23.04,53.76h-74.971L92.013,165.4c-0.853-2.56-2.56-3.413-5.12-4.267
			c-2.56,0-5.12,0-6.827,0.853l-42.667,25.6c-2.56,1.707-4.267,4.267-4.267,7.68v63.147l-17.067,13.274v-33.754
			c0-5.12-3.413-8.533-8.533-8.533S-1,232.813-1,237.933v102.4c0,5.12,3.413,8.533,8.533,8.533s8.533-3.413,8.533-8.533v-33.754
			l17.067,13.274V383c0,3.413,1.707,5.973,4.267,7.68l42.667,25.6c0.853,0.853,2.56,0.853,4.267,0.853c0.853,0,1.707,0,2.56,0
			c1.707-0.853,4.267-2.56,5.12-4.267l31.695-55.467h319.025c37.547,0,68.267-30.72,68.267-68.267
			C511,251.587,480.28,220.867,442.733,220.867z M235.373,178.2h108.373l17.92,42.667H216.6L235.373,178.2z M50.2,200.387
			l30.72-18.773l23.04,39.253H84.333c-1.707,0-3.413,0.853-5.12,1.707L50.2,245.139V200.387z M80.92,396.653L50.2,377.88v-44.373
			l29.013,22.187c0.427,0.213,0.853,0.427,1.28,0.627c1.28,0.6,2.56,1.08,3.84,1.08h18.773L80.92,396.653z M442.733,340.333H118.467
			H86.893l-65.707-51.2l24.486-19.08c0.371-0.177,0.743-0.361,1.114-0.547l40.107-31.573h31.573H203.8h170.667h68.267
			c22.182,0,41.177,14.3,48.247,34.133H383c-5.12,0-8.533,3.413-8.533,8.533s3.413,8.533,8.533,8.533h110.933
			c0,5.978-1.048,11.721-2.953,17.067H348.867c-5.12,0-8.533,3.413-8.533,8.533s3.413,8.533,8.533,8.533h131.938
			C471.414,333.725,457.81,340.333,442.733,340.333z"/>
	</g>
</g>
</svg>